<mxfile host="app.diagrams.net" agent="Mozilla/5.0 (Windows NT 10.0; Win64; x64) AppleWebKit/537.36 (KHTML, like Gecko) Chrome/133.0.0.0 Safari/537.36 Edg/133.0.0.0" version="26.0.15">
  <diagram name="Page-1" id="0X0jc9GYxiRo_nt6wY35">
    <mxGraphModel dx="1674" dy="827" grid="1" gridSize="10" guides="1" tooltips="1" connect="1" arrows="0" fold="1" page="1" pageScale="1" pageWidth="850" pageHeight="1100" math="0" shadow="0">
      <root>
        <mxCell id="0" />
        <mxCell id="1" parent="0" />
        <mxCell id="qVFrCzrvDSvQBXu9FOAS-1" value="Koch" style="shape=table;startSize=30;container=1;collapsible=1;childLayout=tableLayout;fixedRows=1;rowLines=0;fontStyle=1;align=center;resizeLast=1;html=1;whiteSpace=wrap;" parent="1" vertex="1">
          <mxGeometry x="50" y="80" width="290" height="220" as="geometry" />
        </mxCell>
        <mxCell id="qVFrCzrvDSvQBXu9FOAS-2" value="" style="shape=tableRow;horizontal=0;startSize=0;swimlaneHead=0;swimlaneBody=0;fillColor=none;collapsible=0;dropTarget=0;points=[[0,0.5],[1,0.5]];portConstraint=eastwest;top=0;left=0;right=0;bottom=0;html=1;" parent="qVFrCzrvDSvQBXu9FOAS-1" vertex="1">
          <mxGeometry y="30" width="290" height="30" as="geometry" />
        </mxCell>
        <mxCell id="qVFrCzrvDSvQBXu9FOAS-3" value="PK" style="shape=partialRectangle;connectable=0;fillColor=none;top=0;left=0;bottom=0;right=0;fontStyle=1;overflow=hidden;html=1;whiteSpace=wrap;" parent="qVFrCzrvDSvQBXu9FOAS-2" vertex="1">
          <mxGeometry width="60" height="30" as="geometry">
            <mxRectangle width="60" height="30" as="alternateBounds" />
          </mxGeometry>
        </mxCell>
        <mxCell id="qVFrCzrvDSvQBXu9FOAS-4" value="KochID: int(10)" style="shape=partialRectangle;connectable=0;fillColor=none;top=0;left=0;bottom=0;right=0;align=left;spacingLeft=6;fontStyle=5;overflow=hidden;html=1;whiteSpace=wrap;" parent="qVFrCzrvDSvQBXu9FOAS-2" vertex="1">
          <mxGeometry x="60" width="230" height="30" as="geometry">
            <mxRectangle width="230" height="30" as="alternateBounds" />
          </mxGeometry>
        </mxCell>
        <mxCell id="qVFrCzrvDSvQBXu9FOAS-11" value="" style="shape=tableRow;horizontal=0;startSize=0;swimlaneHead=0;swimlaneBody=0;fillColor=none;collapsible=0;dropTarget=0;points=[[0,0.5],[1,0.5]];portConstraint=eastwest;top=0;left=0;right=0;bottom=0;html=1;" parent="qVFrCzrvDSvQBXu9FOAS-1" vertex="1">
          <mxGeometry y="60" width="290" height="160" as="geometry" />
        </mxCell>
        <mxCell id="qVFrCzrvDSvQBXu9FOAS-12" value="" style="shape=partialRectangle;connectable=0;fillColor=none;top=0;left=0;bottom=0;right=0;editable=1;overflow=hidden;html=1;whiteSpace=wrap;" parent="qVFrCzrvDSvQBXu9FOAS-11" vertex="1">
          <mxGeometry width="60" height="160" as="geometry">
            <mxRectangle width="60" height="160" as="alternateBounds" />
          </mxGeometry>
        </mxCell>
        <mxCell id="qVFrCzrvDSvQBXu9FOAS-13" value="name: varchar(40)&lt;div&gt;&lt;br&gt;&lt;/div&gt;&lt;div&gt;vorname: varchar(40)&lt;/div&gt;&lt;div&gt;&lt;br&gt;&lt;/div&gt;&lt;div&gt;anzahl_von_sternen: tinyint(5)&lt;/div&gt;&lt;div&gt;&lt;br&gt;&lt;/div&gt;&lt;div&gt;koch_alter: int(5)&lt;/div&gt;&lt;div&gt;&lt;br&gt;&lt;/div&gt;&lt;div&gt;geschlecht: enum(&#39;m&#39;, &#39;w&#39;, &#39;d&#39;)&lt;/div&gt;&lt;div&gt;&lt;br&gt;&lt;/div&gt;&lt;div&gt;spezialgebiet: varchar(40)&lt;/div&gt;" style="shape=partialRectangle;connectable=0;fillColor=none;top=0;left=0;bottom=0;right=0;align=left;spacingLeft=6;overflow=hidden;html=1;whiteSpace=wrap;" parent="qVFrCzrvDSvQBXu9FOAS-11" vertex="1">
          <mxGeometry x="60" width="230" height="160" as="geometry">
            <mxRectangle width="230" height="160" as="alternateBounds" />
          </mxGeometry>
        </mxCell>
        <mxCell id="qVFrCzrvDSvQBXu9FOAS-16" value="Kunde" style="shape=table;startSize=30;container=1;collapsible=1;childLayout=tableLayout;fixedRows=1;rowLines=0;fontStyle=1;align=center;resizeLast=1;html=1;whiteSpace=wrap;" parent="1" vertex="1">
          <mxGeometry x="760" y="70" width="230" height="310" as="geometry" />
        </mxCell>
        <mxCell id="qVFrCzrvDSvQBXu9FOAS-17" value="" style="shape=tableRow;horizontal=0;startSize=0;swimlaneHead=0;swimlaneBody=0;fillColor=none;collapsible=0;dropTarget=0;points=[[0,0.5],[1,0.5]];portConstraint=eastwest;top=0;left=0;right=0;bottom=0;html=1;" parent="qVFrCzrvDSvQBXu9FOAS-16" vertex="1">
          <mxGeometry y="30" width="230" height="30" as="geometry" />
        </mxCell>
        <mxCell id="qVFrCzrvDSvQBXu9FOAS-18" value="PK" style="shape=partialRectangle;connectable=0;fillColor=none;top=0;left=0;bottom=0;right=0;fontStyle=1;overflow=hidden;html=1;whiteSpace=wrap;" parent="qVFrCzrvDSvQBXu9FOAS-17" vertex="1">
          <mxGeometry width="60" height="30" as="geometry">
            <mxRectangle width="60" height="30" as="alternateBounds" />
          </mxGeometry>
        </mxCell>
        <mxCell id="qVFrCzrvDSvQBXu9FOAS-19" value="KundeID: int(10)" style="shape=partialRectangle;connectable=0;fillColor=none;top=0;left=0;bottom=0;right=0;align=left;spacingLeft=6;fontStyle=5;overflow=hidden;html=1;whiteSpace=wrap;" parent="qVFrCzrvDSvQBXu9FOAS-17" vertex="1">
          <mxGeometry x="60" width="170" height="30" as="geometry">
            <mxRectangle width="170" height="30" as="alternateBounds" />
          </mxGeometry>
        </mxCell>
        <mxCell id="qVFrCzrvDSvQBXu9FOAS-23" value="" style="shape=tableRow;horizontal=0;startSize=0;swimlaneHead=0;swimlaneBody=0;fillColor=none;collapsible=0;dropTarget=0;points=[[0,0.5],[1,0.5]];portConstraint=eastwest;top=0;left=0;right=0;bottom=0;html=1;" parent="qVFrCzrvDSvQBXu9FOAS-16" vertex="1">
          <mxGeometry y="60" width="230" height="250" as="geometry" />
        </mxCell>
        <mxCell id="qVFrCzrvDSvQBXu9FOAS-24" value="" style="shape=partialRectangle;connectable=0;fillColor=none;top=0;left=0;bottom=0;right=0;editable=1;overflow=hidden;html=1;whiteSpace=wrap;" parent="qVFrCzrvDSvQBXu9FOAS-23" vertex="1">
          <mxGeometry width="60" height="250" as="geometry">
            <mxRectangle width="60" height="250" as="alternateBounds" />
          </mxGeometry>
        </mxCell>
        <mxCell id="qVFrCzrvDSvQBXu9FOAS-25" value="name: varchar(40)&lt;div&gt;&lt;br&gt;&lt;/div&gt;&lt;div&gt;vorname: varchar(40)&lt;/div&gt;&lt;div&gt;&lt;br&gt;&lt;/div&gt;&lt;div&gt;email: varchar(40)&lt;/div&gt;&lt;div&gt;&lt;br&gt;&lt;/div&gt;&lt;div&gt;lieblingsgericht: varchar(40)&lt;/div&gt;&lt;div&gt;&lt;br&gt;&lt;/div&gt;&lt;div&gt;plz: varchar(5)&lt;/div&gt;&lt;div&gt;&lt;br&gt;&lt;/div&gt;&lt;div&gt;ort: varchar(40)&lt;/div&gt;&lt;div&gt;&lt;br&gt;&lt;/div&gt;&lt;div&gt;strasse: varchar(40)&lt;/div&gt;&lt;div&gt;&lt;br&gt;&lt;/div&gt;&lt;div&gt;strassenr: varchar(5)&lt;/div&gt;&lt;div&gt;&lt;br&gt;&lt;/div&gt;&lt;div&gt;telefonnr: varchar(15)&lt;/div&gt;" style="shape=partialRectangle;connectable=0;fillColor=none;top=0;left=0;bottom=0;right=0;align=left;spacingLeft=6;overflow=hidden;html=1;whiteSpace=wrap;" parent="qVFrCzrvDSvQBXu9FOAS-23" vertex="1">
          <mxGeometry x="60" width="170" height="250" as="geometry">
            <mxRectangle width="170" height="250" as="alternateBounds" />
          </mxGeometry>
        </mxCell>
        <mxCell id="qVFrCzrvDSvQBXu9FOAS-42" value="Rezept" style="shape=table;startSize=30;container=1;collapsible=1;childLayout=tableLayout;fixedRows=1;rowLines=0;fontStyle=1;align=center;resizeLast=1;html=1;whiteSpace=wrap;" parent="1" vertex="1">
          <mxGeometry x="710" y="440" width="280" height="180" as="geometry" />
        </mxCell>
        <mxCell id="qVFrCzrvDSvQBXu9FOAS-43" value="" style="shape=tableRow;horizontal=0;startSize=0;swimlaneHead=0;swimlaneBody=0;fillColor=none;collapsible=0;dropTarget=0;points=[[0,0.5],[1,0.5]];portConstraint=eastwest;top=0;left=0;right=0;bottom=0;html=1;" parent="qVFrCzrvDSvQBXu9FOAS-42" vertex="1">
          <mxGeometry y="30" width="280" height="30" as="geometry" />
        </mxCell>
        <mxCell id="qVFrCzrvDSvQBXu9FOAS-44" value="PK" style="shape=partialRectangle;connectable=0;fillColor=none;top=0;left=0;bottom=0;right=0;fontStyle=1;overflow=hidden;html=1;whiteSpace=wrap;" parent="qVFrCzrvDSvQBXu9FOAS-43" vertex="1">
          <mxGeometry width="60" height="30" as="geometry">
            <mxRectangle width="60" height="30" as="alternateBounds" />
          </mxGeometry>
        </mxCell>
        <mxCell id="qVFrCzrvDSvQBXu9FOAS-45" value="rezeptID: int(10)" style="shape=partialRectangle;connectable=0;fillColor=none;top=0;left=0;bottom=0;right=0;align=left;spacingLeft=6;fontStyle=5;overflow=hidden;html=1;whiteSpace=wrap;" parent="qVFrCzrvDSvQBXu9FOAS-43" vertex="1">
          <mxGeometry x="60" width="220" height="30" as="geometry">
            <mxRectangle width="220" height="30" as="alternateBounds" />
          </mxGeometry>
        </mxCell>
        <mxCell id="qVFrCzrvDSvQBXu9FOAS-49" value="" style="shape=tableRow;horizontal=0;startSize=0;swimlaneHead=0;swimlaneBody=0;fillColor=none;collapsible=0;dropTarget=0;points=[[0,0.5],[1,0.5]];portConstraint=eastwest;top=0;left=0;right=0;bottom=0;html=1;" parent="qVFrCzrvDSvQBXu9FOAS-42" vertex="1">
          <mxGeometry y="60" width="280" height="120" as="geometry" />
        </mxCell>
        <mxCell id="qVFrCzrvDSvQBXu9FOAS-50" value="" style="shape=partialRectangle;connectable=0;fillColor=none;top=0;left=0;bottom=0;right=0;editable=1;overflow=hidden;html=1;whiteSpace=wrap;" parent="qVFrCzrvDSvQBXu9FOAS-49" vertex="1">
          <mxGeometry width="60" height="120" as="geometry">
            <mxRectangle width="60" height="120" as="alternateBounds" />
          </mxGeometry>
        </mxCell>
        <mxCell id="qVFrCzrvDSvQBXu9FOAS-51" value="name: varchar(40)&lt;div&gt;&lt;br&gt;&lt;/div&gt;&lt;div&gt;dauer: int&lt;/div&gt;&lt;div&gt;&lt;br&gt;&lt;/div&gt;&lt;div&gt;speiseart: (40)&lt;/div&gt;&lt;div&gt;&lt;br&gt;&lt;/div&gt;&lt;div&gt;rezeptbeschreibung: text&lt;/div&gt;" style="shape=partialRectangle;connectable=0;fillColor=none;top=0;left=0;bottom=0;right=0;align=left;spacingLeft=6;overflow=hidden;html=1;whiteSpace=wrap;" parent="qVFrCzrvDSvQBXu9FOAS-49" vertex="1">
          <mxGeometry x="60" width="220" height="120" as="geometry">
            <mxRectangle width="220" height="120" as="alternateBounds" />
          </mxGeometry>
        </mxCell>
        <mxCell id="qVFrCzrvDSvQBXu9FOAS-55" value="GekochtesGericht" style="shape=table;startSize=30;container=1;collapsible=1;childLayout=tableLayout;fixedRows=1;rowLines=0;fontStyle=1;align=center;resizeLast=1;html=1;whiteSpace=wrap;" parent="1" vertex="1">
          <mxGeometry x="210" y="360" width="280" height="120" as="geometry" />
        </mxCell>
        <mxCell id="qVFrCzrvDSvQBXu9FOAS-56" value="" style="shape=tableRow;horizontal=0;startSize=0;swimlaneHead=0;swimlaneBody=0;fillColor=none;collapsible=0;dropTarget=0;points=[[0,0.5],[1,0.5]];portConstraint=eastwest;top=0;left=0;right=0;bottom=0;html=1;" parent="qVFrCzrvDSvQBXu9FOAS-55" vertex="1">
          <mxGeometry y="30" width="280" height="30" as="geometry" />
        </mxCell>
        <mxCell id="qVFrCzrvDSvQBXu9FOAS-57" value="PK" style="shape=partialRectangle;connectable=0;fillColor=none;top=0;left=0;bottom=0;right=0;fontStyle=1;overflow=hidden;html=1;whiteSpace=wrap;" parent="qVFrCzrvDSvQBXu9FOAS-56" vertex="1">
          <mxGeometry width="60" height="30" as="geometry">
            <mxRectangle width="60" height="30" as="alternateBounds" />
          </mxGeometry>
        </mxCell>
        <mxCell id="qVFrCzrvDSvQBXu9FOAS-58" value="gekochtesgerichtID: int(10)" style="shape=partialRectangle;connectable=0;fillColor=none;top=0;left=0;bottom=0;right=0;align=left;spacingLeft=6;fontStyle=5;overflow=hidden;html=1;whiteSpace=wrap;" parent="qVFrCzrvDSvQBXu9FOAS-56" vertex="1">
          <mxGeometry x="60" width="220" height="30" as="geometry">
            <mxRectangle width="220" height="30" as="alternateBounds" />
          </mxGeometry>
        </mxCell>
        <mxCell id="qVFrCzrvDSvQBXu9FOAS-59" value="" style="shape=tableRow;horizontal=0;startSize=0;swimlaneHead=0;swimlaneBody=0;fillColor=none;collapsible=0;dropTarget=0;points=[[0,0.5],[1,0.5]];portConstraint=eastwest;top=0;left=0;right=0;bottom=1;html=1;" parent="qVFrCzrvDSvQBXu9FOAS-55" vertex="1">
          <mxGeometry y="60" width="280" height="60" as="geometry" />
        </mxCell>
        <mxCell id="qVFrCzrvDSvQBXu9FOAS-60" value="FK1&lt;div&gt;&lt;br&gt;&lt;/div&gt;&lt;div&gt;FK2&lt;/div&gt;" style="shape=partialRectangle;connectable=0;fillColor=none;top=0;left=0;bottom=0;right=0;fontStyle=1;overflow=hidden;html=1;whiteSpace=wrap;" parent="qVFrCzrvDSvQBXu9FOAS-59" vertex="1">
          <mxGeometry width="60" height="60" as="geometry">
            <mxRectangle width="60" height="60" as="alternateBounds" />
          </mxGeometry>
        </mxCell>
        <mxCell id="qVFrCzrvDSvQBXu9FOAS-61" value="kochID: int(10)&lt;div&gt;&lt;br&gt;&lt;/div&gt;&lt;div&gt;rezeptID: int(10)&lt;/div&gt;" style="shape=partialRectangle;connectable=0;fillColor=none;top=0;left=0;bottom=0;right=0;align=left;spacingLeft=6;fontStyle=5;overflow=hidden;html=1;whiteSpace=wrap;" parent="qVFrCzrvDSvQBXu9FOAS-59" vertex="1">
          <mxGeometry x="60" width="220" height="60" as="geometry">
            <mxRectangle width="220" height="60" as="alternateBounds" />
          </mxGeometry>
        </mxCell>
        <mxCell id="qVFrCzrvDSvQBXu9FOAS-68" value="Bestellung" style="shape=table;startSize=30;container=1;collapsible=1;childLayout=tableLayout;fixedRows=1;rowLines=0;fontStyle=1;align=center;resizeLast=1;html=1;whiteSpace=wrap;" parent="1" vertex="1">
          <mxGeometry x="410" y="70" width="260" height="210" as="geometry" />
        </mxCell>
        <mxCell id="qVFrCzrvDSvQBXu9FOAS-69" value="" style="shape=tableRow;horizontal=0;startSize=0;swimlaneHead=0;swimlaneBody=0;fillColor=none;collapsible=0;dropTarget=0;points=[[0,0.5],[1,0.5]];portConstraint=eastwest;top=0;left=0;right=0;bottom=0;html=1;" parent="qVFrCzrvDSvQBXu9FOAS-68" vertex="1">
          <mxGeometry y="30" width="260" height="90" as="geometry" />
        </mxCell>
        <mxCell id="qVFrCzrvDSvQBXu9FOAS-70" value="PK&lt;div&gt;&lt;br&gt;&lt;/div&gt;&lt;div&gt;FK1&lt;/div&gt;&lt;div&gt;&lt;br&gt;&lt;/div&gt;&lt;div&gt;FK2&lt;/div&gt;" style="shape=partialRectangle;connectable=0;fillColor=none;top=0;left=0;bottom=0;right=0;fontStyle=1;overflow=hidden;html=1;whiteSpace=wrap;" parent="qVFrCzrvDSvQBXu9FOAS-69" vertex="1">
          <mxGeometry width="60" height="90" as="geometry">
            <mxRectangle width="60" height="90" as="alternateBounds" />
          </mxGeometry>
        </mxCell>
        <mxCell id="qVFrCzrvDSvQBXu9FOAS-71" value="bestellungID: int(10)&lt;div&gt;&lt;br&gt;&lt;/div&gt;&lt;div&gt;kundeID: int(10)&lt;/div&gt;&lt;div&gt;&lt;br&gt;&lt;/div&gt;&lt;div&gt;gekochtesgerichtID: int(10)&lt;/div&gt;" style="shape=partialRectangle;connectable=0;fillColor=none;top=0;left=0;bottom=0;right=0;align=left;spacingLeft=6;fontStyle=5;overflow=hidden;html=1;whiteSpace=wrap;" parent="qVFrCzrvDSvQBXu9FOAS-69" vertex="1">
          <mxGeometry x="60" width="200" height="90" as="geometry">
            <mxRectangle width="200" height="90" as="alternateBounds" />
          </mxGeometry>
        </mxCell>
        <mxCell id="qVFrCzrvDSvQBXu9FOAS-75" value="" style="shape=tableRow;horizontal=0;startSize=0;swimlaneHead=0;swimlaneBody=0;fillColor=none;collapsible=0;dropTarget=0;points=[[0,0.5],[1,0.5]];portConstraint=eastwest;top=0;left=0;right=0;bottom=0;html=1;" parent="qVFrCzrvDSvQBXu9FOAS-68" vertex="1">
          <mxGeometry y="120" width="260" height="90" as="geometry" />
        </mxCell>
        <mxCell id="qVFrCzrvDSvQBXu9FOAS-76" value="" style="shape=partialRectangle;connectable=0;fillColor=none;top=0;left=0;bottom=0;right=0;editable=1;overflow=hidden;html=1;whiteSpace=wrap;" parent="qVFrCzrvDSvQBXu9FOAS-75" vertex="1">
          <mxGeometry width="60" height="90" as="geometry">
            <mxRectangle width="60" height="90" as="alternateBounds" />
          </mxGeometry>
        </mxCell>
        <mxCell id="qVFrCzrvDSvQBXu9FOAS-77" value="zeitpunkt: datetime (10)&lt;div&gt;&lt;br&gt;&lt;/div&gt;&lt;div&gt;preis: decimal(6, 2)&lt;/div&gt;&lt;div&gt;&lt;br&gt;&lt;/div&gt;&lt;div&gt;zahlungsart: varchar(40)&lt;/div&gt;" style="shape=partialRectangle;connectable=0;fillColor=none;top=0;left=0;bottom=0;right=0;align=left;spacingLeft=6;overflow=hidden;html=1;whiteSpace=wrap;" parent="qVFrCzrvDSvQBXu9FOAS-75" vertex="1">
          <mxGeometry x="60" width="200" height="90" as="geometry">
            <mxRectangle width="200" height="90" as="alternateBounds" />
          </mxGeometry>
        </mxCell>
        <mxCell id="qVFrCzrvDSvQBXu9FOAS-81" value="" style="endArrow=none;html=1;rounded=0;exitX=1;exitY=0.133;exitDx=0;exitDy=0;exitPerimeter=0;entryX=0;entryY=0.083;entryDx=0;entryDy=0;entryPerimeter=0;" parent="1" source="qVFrCzrvDSvQBXu9FOAS-55" target="qVFrCzrvDSvQBXu9FOAS-42" edge="1">
          <mxGeometry width="50" height="50" relative="1" as="geometry">
            <mxPoint x="460" y="470" as="sourcePoint" />
            <mxPoint x="730" y="490" as="targetPoint" />
          </mxGeometry>
        </mxCell>
        <mxCell id="qVFrCzrvDSvQBXu9FOAS-82" value="n" style="text;html=1;align=center;verticalAlign=middle;resizable=0;points=[];autosize=1;strokeColor=none;fillColor=none;" parent="1" vertex="1">
          <mxGeometry x="490" y="380" width="30" height="30" as="geometry" />
        </mxCell>
        <mxCell id="qVFrCzrvDSvQBXu9FOAS-83" value="1" style="text;html=1;align=center;verticalAlign=middle;resizable=0;points=[];autosize=1;strokeColor=none;fillColor=none;" parent="1" vertex="1">
          <mxGeometry x="680" y="460" width="30" height="30" as="geometry" />
        </mxCell>
        <mxCell id="qVFrCzrvDSvQBXu9FOAS-84" value="" style="endArrow=none;html=1;rounded=0;entryX=0.117;entryY=1.006;entryDx=0;entryDy=0;entryPerimeter=0;exitX=-0.007;exitY=0.1;exitDx=0;exitDy=0;exitPerimeter=0;" parent="1" source="qVFrCzrvDSvQBXu9FOAS-55" target="qVFrCzrvDSvQBXu9FOAS-11" edge="1">
          <mxGeometry width="50" height="50" relative="1" as="geometry">
            <mxPoint x="30" y="400" as="sourcePoint" />
            <mxPoint x="80" y="350" as="targetPoint" />
          </mxGeometry>
        </mxCell>
        <mxCell id="qVFrCzrvDSvQBXu9FOAS-85" value="1" style="text;html=1;align=center;verticalAlign=middle;resizable=0;points=[];autosize=1;strokeColor=none;fillColor=none;" parent="1" vertex="1">
          <mxGeometry x="70" y="310" width="30" height="30" as="geometry" />
        </mxCell>
        <mxCell id="qVFrCzrvDSvQBXu9FOAS-86" value="n" style="text;html=1;align=center;verticalAlign=middle;resizable=0;points=[];autosize=1;strokeColor=none;fillColor=none;" parent="1" vertex="1">
          <mxGeometry x="170" y="370" width="30" height="30" as="geometry" />
        </mxCell>
        <mxCell id="qVFrCzrvDSvQBXu9FOAS-87" value="" style="endArrow=none;html=1;rounded=0;entryX=0.104;entryY=1.008;entryDx=0;entryDy=0;entryPerimeter=0;exitX=0.821;exitY=0;exitDx=0;exitDy=0;exitPerimeter=0;" parent="1" source="qVFrCzrvDSvQBXu9FOAS-55" target="qVFrCzrvDSvQBXu9FOAS-75" edge="1">
          <mxGeometry width="50" height="50" relative="1" as="geometry">
            <mxPoint x="380" y="410" as="sourcePoint" />
            <mxPoint x="430" y="360" as="targetPoint" />
          </mxGeometry>
        </mxCell>
        <mxCell id="qVFrCzrvDSvQBXu9FOAS-88" value="n" style="text;html=1;align=center;verticalAlign=middle;resizable=0;points=[];autosize=1;strokeColor=none;fillColor=none;" parent="1" vertex="1">
          <mxGeometry x="440" y="330" width="30" height="30" as="geometry" />
        </mxCell>
        <mxCell id="qVFrCzrvDSvQBXu9FOAS-89" value="1" style="text;html=1;align=center;verticalAlign=middle;resizable=0;points=[];autosize=1;strokeColor=none;fillColor=none;" parent="1" vertex="1">
          <mxGeometry x="430" y="280" width="30" height="30" as="geometry" />
        </mxCell>
        <mxCell id="qVFrCzrvDSvQBXu9FOAS-92" value="" style="endArrow=none;html=1;rounded=0;entryX=0.017;entryY=0.048;entryDx=0;entryDy=0;entryPerimeter=0;exitX=0.992;exitY=0.068;exitDx=0;exitDy=0;exitPerimeter=0;" parent="1" source="qVFrCzrvDSvQBXu9FOAS-68" target="qVFrCzrvDSvQBXu9FOAS-16" edge="1">
          <mxGeometry width="50" height="50" relative="1" as="geometry">
            <mxPoint x="730" y="140" as="sourcePoint" />
            <mxPoint x="780" y="90" as="targetPoint" />
          </mxGeometry>
        </mxCell>
        <mxCell id="qVFrCzrvDSvQBXu9FOAS-93" value="n" style="text;html=1;align=center;verticalAlign=middle;resizable=0;points=[];autosize=1;strokeColor=none;fillColor=none;" parent="1" vertex="1">
          <mxGeometry x="670" y="88" width="30" height="30" as="geometry" />
        </mxCell>
        <mxCell id="qVFrCzrvDSvQBXu9FOAS-94" value="1" style="text;html=1;align=center;verticalAlign=middle;resizable=0;points=[];autosize=1;strokeColor=none;fillColor=none;" parent="1" vertex="1">
          <mxGeometry x="730" y="88" width="30" height="30" as="geometry" />
        </mxCell>
        <mxCell id="qVFrCzrvDSvQBXu9FOAS-95" value="Admin" style="shape=table;startSize=30;container=1;collapsible=1;childLayout=tableLayout;fixedRows=1;rowLines=0;fontStyle=1;align=center;resizeLast=1;html=1;whiteSpace=wrap;" parent="1" vertex="1">
          <mxGeometry x="50" y="510" width="240" height="120" as="geometry" />
        </mxCell>
        <mxCell id="qVFrCzrvDSvQBXu9FOAS-96" value="" style="shape=tableRow;horizontal=0;startSize=0;swimlaneHead=0;swimlaneBody=0;fillColor=none;collapsible=0;dropTarget=0;points=[[0,0.5],[1,0.5]];portConstraint=eastwest;top=0;left=0;right=0;bottom=0;html=1;" parent="qVFrCzrvDSvQBXu9FOAS-95" vertex="1">
          <mxGeometry y="30" width="240" height="30" as="geometry" />
        </mxCell>
        <mxCell id="qVFrCzrvDSvQBXu9FOAS-97" value="PK" style="shape=partialRectangle;connectable=0;fillColor=none;top=0;left=0;bottom=0;right=0;fontStyle=1;overflow=hidden;html=1;whiteSpace=wrap;" parent="qVFrCzrvDSvQBXu9FOAS-96" vertex="1">
          <mxGeometry width="60" height="30" as="geometry">
            <mxRectangle width="60" height="30" as="alternateBounds" />
          </mxGeometry>
        </mxCell>
        <mxCell id="qVFrCzrvDSvQBXu9FOAS-98" value="admin_id: int(10)" style="shape=partialRectangle;connectable=0;fillColor=none;top=0;left=0;bottom=0;right=0;align=left;spacingLeft=6;fontStyle=5;overflow=hidden;html=1;whiteSpace=wrap;" parent="qVFrCzrvDSvQBXu9FOAS-96" vertex="1">
          <mxGeometry x="60" width="180" height="30" as="geometry">
            <mxRectangle width="180" height="30" as="alternateBounds" />
          </mxGeometry>
        </mxCell>
        <mxCell id="qVFrCzrvDSvQBXu9FOAS-102" value="" style="shape=tableRow;horizontal=0;startSize=0;swimlaneHead=0;swimlaneBody=0;fillColor=none;collapsible=0;dropTarget=0;points=[[0,0.5],[1,0.5]];portConstraint=eastwest;top=0;left=0;right=0;bottom=0;html=1;" parent="qVFrCzrvDSvQBXu9FOAS-95" vertex="1">
          <mxGeometry y="60" width="240" height="60" as="geometry" />
        </mxCell>
        <mxCell id="qVFrCzrvDSvQBXu9FOAS-103" value="" style="shape=partialRectangle;connectable=0;fillColor=none;top=0;left=0;bottom=0;right=0;editable=1;overflow=hidden;html=1;whiteSpace=wrap;" parent="qVFrCzrvDSvQBXu9FOAS-102" vertex="1">
          <mxGeometry width="60" height="60" as="geometry">
            <mxRectangle width="60" height="60" as="alternateBounds" />
          </mxGeometry>
        </mxCell>
        <mxCell id="qVFrCzrvDSvQBXu9FOAS-104" value="username varchar(50)&lt;div&gt;&lt;br&gt;&lt;/div&gt;&lt;div&gt;password: varchar(255)&lt;/div&gt;" style="shape=partialRectangle;connectable=0;fillColor=none;top=0;left=0;bottom=0;right=0;align=left;spacingLeft=6;overflow=hidden;html=1;whiteSpace=wrap;" parent="qVFrCzrvDSvQBXu9FOAS-102" vertex="1">
          <mxGeometry x="60" width="180" height="60" as="geometry">
            <mxRectangle width="180" height="60" as="alternateBounds" />
          </mxGeometry>
        </mxCell>
      </root>
    </mxGraphModel>
  </diagram>
</mxfile>
